<?xml version="1.0" standalone="no"?>
<!DOCTYPE svg PUBLIC "-//W3C//DTD SVG 20010904//EN"
 "http://www.w3.org/TR/2001/REC-SVG-20010904/DTD/svg10.dtd">
<svg version="1.0" xmlns="http://www.w3.org/2000/svg"
viewBox="0 0 2048.000000 2048.000000"
 preserveAspectRatio="xMidYMid meet">
<metadata>
Created by potrace 1.16, written by Peter Selinger 2001-2019
</metadata>
<g transform="translate(0.000000,2048.000000) scale(0.100000,-0.100000)"
fill="#000000" stroke="none">
<path d="M10025 18963 c-116 -13 -267 -38 -364 -59 -694 -154 -1291 -608
-1626 -1239 -20 -38 -38 -72 -40 -73 -2 -2 -48 10 -102 27 -133 41 -223 59
-383 76 -369 40 -686 -2 -1035 -135 -443 -169 -842 -514 -1074 -926 -104 -187
-181 -399 -228 -630 -21 -106 -26 -166 -30 -334 -5 -221 2 -309 41 -492 45
-216 111 -396 206 -570 169 -307 402 -560 700 -758 52 -35 107 -71 121 -81 93
-62 353 -173 507 -215 l102 -28 -4 -35 c-3 -20 -5 -334 -5 -698 -1 -585 -3
-663 -16 -663 -8 0 -23 -4 -33 -9 -9 -5 -62 -29 -117 -53 -186 -81 -468 -264
-650 -421 -554 -479 -896 -1103 -986 -1799 l-12 -97 -66 -32 c-81 -40 -270
-167 -376 -252 -120 -97 -300 -289 -386 -413 -87 -123 -203 -346 -247 -475
-80 -229 -124 -492 -126 -749 -1 -251 47 -508 143 -763 58 -156 168 -350 285
-507 153 -204 373 -401 627 -561 63 -40 115 -73 117 -74 1 -1 7 -89 12 -196
28 -551 131 -960 356 -1411 84 -167 197 -346 313 -493 252 -320 503 -550 826
-756 358 -229 703 -363 1149 -447 l141 -26 2365 -4 c1722 -2 2403 0 2505 8
680 56 1291 328 1825 813 153 139 355 375 490 573 337 491 533 1117 557 1770
l6 180 71 38 c89 49 282 183 361 251 346 302 568 661 681 1102 55 214 67 325
61 563 -6 270 -35 421 -130 695 -42 121 -170 372 -237 465 -201 279 -466 515
-738 657 -48 25 -90 53 -94 62 -4 9 -7 34 -7 56 -2 58 -54 314 -90 439 -91
312 -264 659 -455 911 -220 290 -539 579 -840 759 -83 50 -299 158 -379 189
l-47 19 -2 634 c-1 349 -2 659 -3 690 l0 56 115 35 c131 39 324 118 420 170
95 53 273 173 365 247 175 140 377 375 492 575 182 313 274 631 289 1001 14
325 -63 683 -211 982 -226 453 -610 818 -1060 1004 -311 128 -592 182 -899
171 -232 -8 -435 -42 -605 -101 -70 -23 -75 -24 -87 -8 -8 9 -16 25 -20 35 -3
10 -27 56 -54 101 -299 519 -772 909 -1335 1103 -130 44 -365 94 -558 118
-109 13 -407 19 -492 8z m2940 -7352 c99 -17 198 -37 220 -42 417 -111 823
-375 1109 -724 268 -326 425 -681 493 -1115 17 -108 18 -234 18 -2105 l0
-1990 -22 -155 c-69 -476 -225 -859 -507 -1240 -96 -130 -345 -376 -486 -482
-270 -201 -545 -333 -855 -409 -281 -69 -88 -64 -2675 -64 -2215 0 -2342 1
-2465 18 -354 51 -697 180 -985 372 -254 169 -530 447 -696 700 -196 299 -321
609 -388 960 -52 275 -51 231 -51 2300 0 2108 -3 1992 56 2260 183 833 799
1477 1609 1679 105 27 337 65 415 69 28 1 1171 2 2540 1 l2490 0 180 -33z"/>
<path d="M13021 11149 c-49 -240 -162 -518 -265 -655 -110 -146 -219 -214
-526 -328 -25 -9 -99 -32 -165 -50 l-120 -34 45 -11 c318 -83 510 -162 647
-264 139 -104 237 -301 368 -739 14 -49 30 -88 34 -88 4 0 13 25 20 55 36 159
127 413 198 548 111 212 362 366 761 468 50 13 92 26 92 29 0 3 -30 14 -67 24
-271 77 -489 171 -612 264 -151 114 -246 302 -356 702 -20 74 -38 136 -39 137
-1 1 -8 -25 -15 -58z"/>
<path d="M9279 10347 c-57 -30 -96 -87 -109 -159 -6 -32 -9 -156 -8 -285 l3
-228 209 0 209 0 4 239 c3 192 1 249 -11 290 -40 136 -181 204 -297 143z"/>
<path d="M10149 10350 c-42 -22 -86 -71 -106 -117 -10 -24 -13 -98 -13 -298
l0 -265 212 2 212 3 0 265 c1 254 0 267 -21 306 -24 45 -82 100 -120 115 -41
15 -125 10 -164 -11z"/>
<path d="M11030 10354 c-46 -20 -77 -50 -103 -99 -21 -38 -22 -56 -25 -313
l-3 -272 208 2 208 3 0 270 c0 258 -1 272 -22 310 -55 102 -162 143 -263 99z"/>
<path d="M8853 9356 c-106 -34 -203 -122 -256 -234 l-32 -67 0 -1365 0 -1365
39 -73 c46 -86 129 -167 213 -209 l58 -28 1365 0 1365 0 68 33 c75 37 160 114
200 182 59 102 57 45 57 1450 0 888 -3 1305 -11 1346 -6 32 -22 82 -35 110
-33 70 -123 157 -203 197 l-66 32 -1360 2 c-1105 1 -1368 -1 -1402 -11z m2231
-448 c16 -127 84 -254 170 -320 45 -33 140 -70 241 -94 27 -6 21 -9 -49 -26
-200 -47 -319 -173 -361 -383 -9 -44 -17 -81 -19 -82 -2 -2 -10 33 -19 77 -42
216 -172 352 -371 390 -36 7 -66 15 -66 19 0 4 29 12 65 18 147 25 278 118
329 235 24 54 56 170 56 201 0 9 4 17 9 17 5 0 11 -24 15 -52z"/>
<path d="M7706 8755 c-91 -32 -136 -99 -136 -200 0 -84 38 -146 113 -180 51
-24 58 -25 310 -25 l257 0 0 210 0 210 -252 0 c-191 -1 -263 -4 -292 -15z"/>
<path d="M12230 8560 l0 -210 263 0 c234 0 266 2 302 19 74 35 125 110 125
185 0 87 -44 155 -125 192 -48 23 -58 24 -307 24 l-258 0 0 -210z"/>
<path d="M7709 7886 c-57 -20 -96 -53 -118 -99 -39 -81 -20 -198 40 -254 54
-49 80 -53 359 -53 l260 0 0 210 0 210 -252 0 c-181 -1 -263 -5 -289 -14z"/>
<path d="M12230 7691 l0 -211 259 0 c267 0 299 4 354 44 34 25 77 109 77 150
0 84 -39 153 -110 194 l-45 27 -267 3 -268 3 0 -210z"/>
<path d="M7755 7020 c-28 -4 -64 -14 -80 -23 -122 -63 -140 -242 -34 -331 63
-54 78 -56 354 -56 l255 0 0 209 0 210 -222 -1 c-123 -1 -246 -5 -273 -8z"/>
<path d="M12238 7024 c-5 -4 -8 -99 -8 -211 l0 -203 265 0 c298 0 310 2 373
74 85 97 52 267 -62 316 -34 15 -84 19 -301 25 -143 4 -263 4 -267 -1z"/>
<path d="M7446 6189 c-3 -8 -21 -75 -40 -149 -38 -148 -105 -325 -162 -427
-58 -102 -134 -185 -232 -251 -103 -69 -196 -109 -444 -192 -101 -34 -185 -63
-186 -65 -2 -2 29 -13 70 -25 388 -111 555 -193 689 -338 107 -115 178 -267
264 -564 26 -92 51 -165 55 -163 4 2 12 30 20 62 23 105 111 356 159 458 130
272 307 396 741 517 80 22 151 44 158 47 7 4 -51 26 -130 48 -294 84 -489 175
-589 275 -144 144 -214 285 -310 623 -39 139 -54 172 -63 144z"/>
<path d="M11008 5722 l-108 -3 0 -238 c0 -276 8 -319 69 -380 77 -77 217 -77
287 1 56 61 59 74 62 356 l4 262 -64 2 c-115 3 -142 3 -250 0z"/>
<path d="M9170 5460 c0 -238 2 -264 19 -299 80 -156 290 -161 368 -8 26 52 26
53 30 310 l3 257 -210 0 -210 0 0 -260z"/>
<path d="M10030 5473 c0 -145 5 -264 11 -287 15 -54 83 -119 142 -135 102 -29
199 12 246 104 26 49 26 54 29 307 l4 258 -216 0 -216 0 0 -247z"/>
</g>
</svg>
